<?xml version="1.0" standalone="no"?>
<!DOCTYPE svg PUBLIC "-//W3C//DTD SVG 20010904//EN"
 "http://www.w3.org/TR/2001/REC-SVG-20010904/DTD/svg10.dtd">
<svg version="1.0" xmlns="http://www.w3.org/2000/svg"
 width="700.000000pt" height="700.000000pt" viewBox="0 0 700.000000 700.000000"
 preserveAspectRatio="xMidYMid meet">
<metadata>
Created by potrace 1.14, written by Peter Selinger 2001-2017
</metadata>
<g transform="translate(0.000000,700.000000) scale(0.100000,-0.100000)"
fill="#000000" stroke="none">
<path d="M3440 6793 c1 -13 77 -307 84 -324 6 -14 -11 -16 -161 -15 -92 1
-174 0 -181 -2 -17 -6 -14 -126 4 -197 63 -240 348 -560 615 -690 41 -20 82
-41 91 -46 10 -5 25 -9 33 -9 21 0 20 -1 -26 -76 -92 -151 -121 -185 -404
-471 -238 -241 -226 -234 -239 -138 -21 140 -112 352 -208 480 -57 75 -225
248 -297 305 -24 19 -48 40 -55 46 -28 27 -200 137 -283 182 -195 105 -460
201 -658 236 -16 3 -39 8 -50 10 -11 2 -45 7 -75 11 -30 4 -63 9 -72 10 -65
13 -247 19 -593 20 -220 1 -404 0 -410 -2 -17 -5 -6 -200 15 -288 39 -156 135
-311 256 -409 31 -26 52 -46 47 -47 -4 0 -16 -2 -26 -4 -10 -2 -51 -9 -90 -15
-111 -18 -103 -9 -100 -105 7 -260 150 -473 394 -584 l62 -28 -69 -23 c-38
-13 -69 -23 -69 -22 0 1 -22 -7 -50 -17 l-50 -19 0 -68 c0 -184 84 -365 224
-481 127 -105 317 -176 488 -182 37 -1 70 -4 72 -7 12 -12 -186 -221 -303
-319 -212 -177 -372 -281 -668 -432 -285 -147 -378 -214 -434 -316 -25 -45
-29 -62 -29 -132 0 -66 5 -90 26 -135 15 -30 41 -70 57 -88 l31 -32 -59 -60
c-134 -138 -196 -295 -160 -405 12 -35 92 -115 116 -115 8 0 14 -2 14 -4 0 -2
-25 -53 -55 -113 -30 -60 -62 -138 -72 -175 l-17 -66 24 -46 c33 -61 51 -77
95 -81 51 -5 125 36 356 197 514 358 730 486 924 549 36 11 69 19 74 17 5 -1
-16 -30 -47 -64 -31 -33 -86 -94 -122 -134 -36 -40 -70 -78 -75 -84 -19 -20
-149 -171 -195 -226 -98 -115 -283 -356 -366 -475 l-88 -125 -106 -41 c-58
-23 -123 -50 -145 -59 -22 -10 -83 -34 -135 -54 -52 -20 -101 -40 -108 -45
-11 -6 -6 -28 25 -102 31 -76 42 -94 58 -93 19 2 47 12 172 62 l52 21 -13 -27
c-7 -15 -28 -61 -48 -102 -60 -128 -108 -298 -108 -382 l0 -28 110 0 110 0 0
31 c0 17 7 59 16 93 55 219 214 498 503 881 90 120 302 382 366 451 8 10 52
59 138 158 39 45 204 221 235 251 l32 32 67 -24 c37 -13 76 -22 88 -19 11 4
47 31 80 61 40 36 69 55 88 56 15 1 35 2 45 3 263 27 479 88 682 193 296 153
499 371 636 683 52 120 84 212 179 530 161 539 266 768 533 1155 211 307 407
528 792 895 95 91 189 182 209 203 45 48 108 142 123 184 9 26 30 42 117 89
58 31 129 70 157 86 l52 29 0 -504 0 -504 -32 -16 c-32 -15 -33 -14 -117 35
-46 27 -132 74 -192 104 -278 141 -371 144 -486 18 -132 -144 -190 -405 -137
-614 47 -184 194 -374 295 -382 l30 -2 -21 -36 c-45 -75 -107 -189 -128 -236
-12 -27 -28 -64 -36 -81 -35 -77 -75 -202 -109 -342 -47 -195 -62 -406 -39
-561 79 -531 540 -929 1078 -931 475 -1 898 308 1044 763 39 119 51 213 47
368 -2 80 -6 159 -9 175 -3 17 -9 46 -12 65 -12 71 -16 87 -40 177 -50 187
-119 358 -206 512 -26 46 -48 88 -48 92 0 5 -4 9 -9 9 -21 0 -17 25 4 26 82 5
194 118 262 264 42 90 55 153 58 270 4 119 -16 225 -60 325 -37 85 -116 179
-179 212 -91 49 -252 -2 -554 -175 -123 -70 -124 -71 -155 -56 l-32 15 1 560
c0 327 4 563 10 568 9 9 48 32 144 84 30 16 73 39 95 52 22 12 76 42 120 65
206 111 242 132 263 156 42 48 20 140 -41 165 -23 10 -51 9 -144 -5 -63 -10
-124 -19 -136 -22 -21 -4 -37 -7 -112 -19 -16 -3 -59 -10 -95 -16 -36 -6 -78
-13 -95 -16 -33 -5 -53 -8 -105 -17 -55 -9 -85 -14 -250 -42 -177 -29 -183
-30 -230 -38 -19 -3 -46 -8 -60 -10 -14 -2 -42 -7 -62 -11 -26 -5 -46 -2 -70
10 -60 31 -142 56 -223 70 -101 17 -307 17 -405 -1 -41 -7 -95 -16 -119 -19
-25 -3 -47 -8 -51 -10 -3 -2 -26 -6 -50 -10 -25 -3 -52 -8 -61 -11 -75 -22
-266 -34 -352 -22 -101 14 -148 34 -292 129 -139 91 -145 94 -145 82z m1335
-344 c44 -1 109 -9 145 -17 250 -56 341 -253 215 -467 -23 -40 -76 -94 -324
-331 -393 -376 -642 -676 -880 -1058 -200 -320 -289 -530 -445 -1051 -99 -331
-120 -392 -176 -511 -145 -310 -386 -517 -735 -632 -166 -55 -170 -63 66 170
119 117 245 247 281 288 66 77 133 169 126 174 -9 9 -191 97 -192 94 -87 -125
-433 -477 -730 -743 -6 -5 -49 -44 -96 -86 l-85 -76 -41 12 c-69 20 -69 21 -6
98 138 170 270 363 363 532 66 119 139 279 131 286 -4 3 -49 23 -101 43 -74
29 -96 34 -102 24 -5 -7 -9 -17 -9 -21 0 -5 -26 -61 -58 -125 -98 -196 -218
-379 -379 -580 -133 -166 -148 -179 -201 -187 -178 -26 -477 -183 -880 -461
-79 -55 -150 -103 -159 -109 -10 -5 -23 -16 -31 -22 -47 -44 0 37 85 145 63
79 154 171 228 228 l39 32 -59 90 -59 90 -46 -31 c-44 -30 -214 -195 -257
-249 -15 -19 -28 -25 -42 -21 -33 8 -34 20 -9 69 26 54 109 141 193 205 57 43
231 153 258 162 8 2 -3 35 -35 100 -26 53 -50 97 -54 97 -3 0 -43 -20 -88 -45
-46 -25 -92 -45 -102 -45 -39 1 -84 55 -84 103 0 53 75 113 270 214 63 33 169
89 235 123 371 193 765 528 942 803 l44 67 74 0 74 0 -2 108 -2 107 -265 2
c-291 2 -361 12 -478 70 -75 38 -166 128 -196 195 -47 104 -72 84 241 188 273
91 280 93 378 94 l100 1 3 108 c1 59 -1 107 -5 107 -4 1 -127 2 -273 3 -217 3
-278 7 -335 21 -150 39 -269 126 -325 239 -28 55 -37 87 -25 87 2 0 68 11 147
24 135 24 198 34 243 41 11 2 34 6 50 10 17 3 66 9 110 12 44 3 82 7 83 9 2 1
4 49 5 106 l2 103 -165 6 c-180 6 -235 18 -330 72 -114 65 -235 222 -256 333
l-6 30 309 -1 c310 -2 358 -5 534 -30 359 -53 739 -219 993 -435 322 -273 450
-524 441 -865 -4 -158 -50 -296 -134 -403 l-39 -49 77 -77 77 -76 26 27 c74
80 137 199 177 336 l26 87 320 323 c322 323 425 444 514 596 78 133 137 286
161 420 15 85 14 245 -2 300 -13 43 -13 43 -98 71 -120 39 -216 99 -279 174
-14 15 -31 34 -39 42 -12 12 1 14 90 12 89 -1 196 5 256 17 9 1 37 6 62 10 58
9 69 11 165 30 93 18 268 43 275 39 3 -1 42 -4 85 -5z m1040 2 c-11 -10 -78
-46 -311 -172 -50 -27 -94 -49 -97 -49 -4 0 -7 10 -7 23 0 12 -9 45 -20 74
l-19 52 27 5 c15 2 43 7 62 10 19 4 44 8 55 10 11 2 58 9 105 16 47 8 112 19
145 26 33 7 62 13 65 13 2 1 0 -3 -5 -8z m-2149 -236 c65 -90 223 -215 326
-257 29 -12 56 -26 59 -31 11 -16 -14 -194 -30 -210 -26 -26 -259 112 -365
218 -94 93 -232 277 -222 294 2 3 52 6 111 6 95 -1 109 -3 121 -20z m1529
-1139 c61 -29 144 -73 185 -97 41 -25 83 -48 92 -51 14 -6 15 -13 7 -40 -12
-42 -12 -120 1 -152 9 -23 5 -28 -68 -71 -42 -26 -137 -77 -210 -113 -151 -74
-148 -74 -199 1 -58 86 -76 149 -76 267 1 119 21 192 76 273 39 57 37 58 192
-17z m1379 40 c84 -85 120 -295 76 -438 -20 -67 -83 -173 -107 -183 -21 -7
-120 37 -286 128 l-147 80 7 36 c6 32 6 86 0 160 -2 22 15 34 147 107 125 70
249 129 278 133 4 1 18 -10 32 -23z m-698 -231 c25 -29 28 -40 25 -90 -5 -91
-141 -121 -195 -43 -32 45 -11 132 38 157 37 19 106 6 132 -24z m-200 -375
c51 -22 135 -29 195 -17 l36 7 -1 -176 -1 -177 -50 -16 c-93 -31 -150 -66
-220 -136 -40 -40 -84 -96 -101 -130 -35 -65 -64 -171 -64 -227 0 -35 -1 -36
-47 -43 -73 -10 -218 -61 -292 -103 -36 -20 -94 -60 -128 -90 -35 -29 -63 -47
-63 -40 0 28 30 168 55 252 81 277 217 530 390 720 76 84 209 194 237 196 3 0
28 -9 54 -20z m534 -177 c197 -212 360 -550 431 -888 33 -155 34 -386 2 -495
-84 -290 -284 -505 -561 -604 -140 -50 -324 -62 -459 -31 -13 3 -33 7 -44 10
-133 29 -304 130 -411 242 -53 56 -158 205 -158 224 0 5 -9 28 -19 52 -10 23
-24 57 -29 75 -9 27 -9 32 6 33 9 0 127 2 262 3 194 2 258 7 310 20 239 64
433 229 523 446 58 141 60 161 61 592 1 219 4 398 8 398 3 0 38 -35 78 -77z
m-305 -565 c-3 -110 -8 -158 -24 -210 -21 -65 -95 -188 -117 -195 -28 -9 -70
124 -73 231 -3 119 42 211 137 281 80 59 81 57 77 -107z m-380 -438 c10 -25
28 -58 38 -73 11 -16 16 -32 11 -37 -5 -4 -38 -17 -74 -27 -53 -16 -100 -20
-243 -21 -97 -1 -177 0 -177 3 0 10 77 77 121 106 82 53 281 119 300 100 3 -3
14 -26 24 -51z"/>
<path d="M4659 6332 c-105 -51 -71 -204 45 -204 94 0 142 114 76 180 -35 35
-79 44 -121 24z"/>
<path d="M2195 5378 c-62 -122 -62 -112 3 -149 244 -138 411 -341 426 -520 4
-54 -23 -169 -53 -223 l-22 -38 77 -75 78 -76 23 29 c55 69 100 187 111 294 8
80 8 71 -2 149 -21 174 -147 368 -344 524 -74 59 -229 157 -248 157 -6 0 -28
-33 -49 -72z"/>
<path d="M6241 3170 c-3 -3 -7 -18 -9 -35 -20 -191 -156 -347 -338 -388 -32
-7 -66 -13 -74 -12 -23 1 -25 -6 -24 -117 l0 -103 49 3 c310 21 577 279 602
585 l6 67 -34 1 c-19 0 -65 1 -102 2 -38 1 -72 0 -76 -3z"/>
</g>
</svg>
